Coordinates
version=1
nRows=60
nColumns=12
inDegrees=yes

Units are S.I. units (second, meters, Newtons, ...)
Angles are in degrees

endheader
time	SC_y	SC_z	SC_x	AC_y	AC_z	AC_x	GH_y	GH_z	GH_yy	EL_x	PS_y
       0.0              -46.36          4.935          56.19          38.96         -6.853         -10.21          149.0          13.41         -105.5          134.9          97.13
   0.04534              -46.36           4.94          56.19          38.97         -6.853          -10.2          149.0          13.42         -105.4          134.9          97.12
   0.09067              -46.36          4.945          56.18          38.97         -6.854          -10.2          149.0          13.42         -105.4          134.9          97.12
     0.136              -46.36           4.95          56.18          38.97         -6.854          -10.2          148.9          13.42         -105.4          134.9          97.11
    0.1813              -46.36          4.956          56.18          38.97         -6.855         -10.19          148.9          13.43         -105.3          134.9           97.1
    0.2267              -46.36          4.963          56.17          38.98         -6.855         -10.19          148.9          13.43         -105.3          134.9          97.09
     0.272              -46.36          4.969          56.17          38.98         -6.856         -10.19          148.8          13.44         -105.2          134.9          97.08
    0.3174              -46.36          4.976          56.16          38.98         -6.856         -10.18          148.8          13.44         -105.2          134.9          97.07
    0.3627              -46.36          4.984          56.16          38.99         -6.857         -10.18          148.7          13.45         -105.1          134.9          97.06
     0.408              -46.35          4.992          56.15          38.99         -6.858         -10.18          148.7          13.45         -105.1          134.9          97.05
    0.4534              -46.35          5.001          56.14           39.0         -6.859         -10.17          148.6          13.46         -105.0          134.9          97.04
    0.4987              -46.35           5.01          56.14           39.0         -6.859         -10.17          148.6          13.46         -104.9          134.9          97.03
     0.544              -46.35           5.02          56.13          39.01          -6.86         -10.16          148.5          13.47         -104.9          134.9          97.01
    0.5894              -46.35          5.031          56.12          39.01         -6.861         -10.16          148.4          13.48         -104.8          134.9           97.0
    0.6347              -46.35          5.043          56.12          39.02         -6.862         -10.15          148.3          13.49         -104.7          134.9          96.98
      0.68              -46.34          5.056          56.11          39.02         -6.863         -10.14          148.3           13.5         -104.6          134.9          96.96
    0.7254              -46.34           5.07           56.1          39.03         -6.864         -10.14          148.2          13.51         -104.5          134.9          96.94
    0.7707              -46.34          5.085          56.09          39.04         -6.866         -10.13          148.1          13.52         -104.4          134.9          96.92
     0.816              -46.34          5.102          56.08          39.05         -6.867         -10.12          148.0          13.53         -104.3          134.9           96.9
    0.8614              -46.34           5.12          56.06          39.06         -6.869         -10.11          147.9          13.54         -104.2          134.9          96.87
    0.9067              -46.33           5.14          56.05          39.07          -6.87          -10.1          147.7          13.55         -104.0          134.9          96.85
    0.9521              -46.33          5.162          56.03          39.08         -6.872         -10.09          147.6          13.57         -103.9          134.9          96.82
    0.9974              -46.33          5.187          56.02          39.09         -6.874         -10.08          147.4          13.59         -103.7          134.9          96.78
     1.043              -46.32          5.214           56.0           39.1         -6.877         -10.06          147.3           13.6         -103.5          134.9          96.74
     1.088              -46.32          5.244          55.98          39.12         -6.879         -10.05          147.1          13.62         -103.3          134.9           96.7
     1.133              -46.31          5.277          55.96          39.13         -6.882         -10.03          146.9          13.65         -103.1          134.9          96.66
     1.179              -46.31          5.314          55.93          39.15         -6.885         -10.01          146.6          13.67         -102.8          134.8           96.6
     1.224               -46.3          5.357           55.9          39.17         -6.889         -9.987          146.3           13.7         -102.5          134.8          96.55
     1.269               -46.3          5.404          55.87           39.2         -6.893         -9.962          146.0          13.73         -102.2          134.8          96.48
     1.315              -46.29          5.458          55.83          39.22         -6.897         -9.934          145.7          13.77         -101.8          134.8          96.41
      1.36              -46.28           5.52          55.79          39.26         -6.903         -9.903          145.3          13.81         -101.4          134.8          96.32
     1.405              -46.27          5.591          55.74          39.29         -6.909         -9.866          144.8          13.86         -100.9          134.8          96.22
     1.451              -46.26          5.673          55.69          39.33         -6.915         -9.824          144.3          13.92         -100.3          134.8          96.11
     1.496              -46.24          5.768          55.62          39.38         -6.923         -9.774          143.7          13.98         -99.64          134.8          95.98
     1.541              -46.23          5.879          55.54          39.43         -6.933         -9.717          143.0          14.06         -98.87          134.8          95.82
     1.587              -46.21           6.01          55.45           39.5         -6.944         -9.649          142.2          14.15         -97.95          134.8          95.64
     1.632              -46.19          6.166          55.35          39.58         -6.957         -9.568          141.2          14.26         -96.86          134.8          95.43
     1.677              -46.16          6.352          55.22          39.67         -6.973         -9.472          140.0          14.38         -95.56          134.7          95.17
     1.723              -46.13          6.578          55.07          39.78         -6.992         -9.355          138.5          14.54         -93.98          134.7          94.86
     1.768              -46.09          6.854          54.88          39.92         -7.015         -9.212          136.7          14.73         -92.05          134.7          94.47
     1.813              -46.04          7.194          54.64          40.09         -7.044         -9.036          134.6          14.96         -89.67          134.6           94.0
     1.859              -45.98          7.619          54.35           40.3          -7.08         -8.816          131.8          15.25         -86.71          134.6          93.42
     1.904               -45.9          8.154          53.99          40.57         -7.125         -8.539          128.4          15.62         -82.97          134.5          92.68
     1.949              -45.81          8.834          53.52          40.91         -7.183         -8.187          124.1          16.09         -78.22          134.5          91.73
     1.995              -45.68          9.704          52.93          41.34         -7.257         -7.737          118.5          16.68         -72.13          134.4          90.53
      2.04              -45.53          10.82          52.16           41.9         -7.351         -7.159          111.3          17.45         -64.33          134.3          88.98
     2.085              -45.32          12.25          51.19          42.61         -7.472          -6.42          102.2          18.43         -54.36          134.1          87.01
     2.131              -45.07          14.04          49.96           43.5         -7.624         -5.492          90.69          19.65         -41.82          133.9          84.53
     2.176              -44.76          16.23          48.46          44.59         -7.809          -4.36          76.68          21.15         -26.55          133.7           81.5
     2.221               -44.4          18.76          46.73          45.86         -8.023         -3.049          60.45          22.89         -8.841          133.4           78.0
     2.267              -44.01          21.51          44.85          47.22         -8.256         -1.629          42.87          24.77          10.33          133.1           74.2
     2.312              -43.62          24.25          42.98          48.59         -8.488        -0.2085          25.28          26.65           29.5          132.8           70.4
     2.357              -43.26          26.78          41.24          49.85         -8.702          1.103          9.049          28.39          47.21          132.5          66.89
     2.403              -42.95          28.97          39.75          50.94         -8.887          2.235         -4.959          29.89          62.49          132.3          63.87
     2.448              -42.69          30.76          38.52          51.84         -9.039          3.163         -16.45          31.11          75.02          132.1          61.39
     2.493              -42.49          32.19          37.54          52.55          -9.16          3.901         -25.59          32.09          84.99          132.0          59.41
     2.539              -42.33          33.31          36.78          53.11         -9.254           4.48         -32.75          32.86           92.8          131.8          57.87
     2.584               -42.2          34.18          36.18          53.54         -9.328           4.93         -38.33          33.45          98.88          131.7          56.66
     2.629              -42.11          34.86          35.72          53.88         -9.386          5.282         -42.69          33.92          103.6          131.7          55.72
     2.675              -42.03          35.39          35.35          54.14         -9.431          5.559         -46.11          34.29          107.4          131.6          54.98
